<svg width="632" height="479" viewBox="0 0 632 479" fill="none" xmlns="http://www.w3.org/2000/svg">
<path d="M505.441 122.802C525.034 123.639 543.626 129.687 561.22 140.941C578.691 152.271 593.561 167.999 605.828 188.124C618.323 208.621 625.504 229.205 627.371 249.877C629.189 270.749 625.759 290.141 617.076 308.043C608.393 325.944 594.422 340.761 575.167 352.498C557.377 363.342 539.764 368.541 522.327 368.12L567.182 441.708L516.124 472.835L352.556 204.493L397.281 177.235L404.331 188.806C405.049 186.857 405.829 184.92 406.677 183.003C414.414 165.508 428.286 150.663 448.286 138.471C466.796 127.189 485.849 121.967 505.441 122.802ZM499.403 180.41C489.115 179.185 478.503 181.902 467.571 188.565C456.267 195.456 448.815 203.495 445.211 212.677C441.483 221.935 440.931 232.07 443.553 243.08C446.175 254.09 451.196 265.683 458.617 277.857C466.038 290.032 474.043 299.809 482.629 307.185C491.214 314.56 500.35 318.787 510.039 319.867C519.604 321.022 529.665 318.384 540.224 311.947C551.529 305.056 559.145 296.582 563.067 286.524C566.94 276.666 567.772 266.018 565.571 254.58C563.446 243.267 558.975 232.019 552.16 220.838C545.269 209.533 537.311 200.241 528.277 192.969C519.319 185.82 509.692 181.636 499.403 180.41ZM384.011 199.46C379.024 199.46 374.982 203.504 374.98 208.491C374.98 213.478 379.024 217.522 384.011 217.522C388.997 217.52 393.042 213.477 393.042 208.491C393.041 203.505 388.997 199.461 384.011 199.46Z" fill="#D9D9D9"/>
<path d="M446.204 135.056C465.316 123.406 485.145 117.933 505.611 118.806C525.32 119.647 544.022 125.574 561.671 136.498L563.376 137.571L563.387 137.578L563.396 137.585C581.433 149.283 596.706 165.473 609.244 186.042L610.425 188.006C622.465 208.303 629.485 228.814 631.354 249.517L631.355 249.529C633.233 271.081 629.69 291.201 620.675 309.788C611.614 328.469 597.068 343.832 577.248 355.913C561.308 365.63 545.336 371.042 529.372 371.991L572.68 443.042L514.791 478.332L370.351 241.37H379.719L517.457 467.336L561.685 440.374L515.098 363.944L522.424 364.121C538.957 364.52 555.823 359.605 573.085 349.083C591.775 337.69 605.172 323.418 613.477 306.297C621.825 289.084 625.143 270.424 623.387 250.236C621.583 230.264 614.638 210.262 602.413 190.206C590.417 170.526 575.949 155.26 559.044 144.297C542.01 133.406 524.103 127.603 505.271 126.799C486.845 126.013 468.846 130.819 451.208 141.38L450.368 141.887C431.21 153.565 418.09 167.58 410.684 183.845L410.581 184.072V167.746C419.042 155.232 430.963 144.346 446.204 135.056ZM465.489 185.149C477.002 178.132 488.505 175.085 499.876 176.438L500.915 176.571C511.279 177.998 520.947 182.23 529.881 189.142L530.772 189.842L530.779 189.848L530.786 189.853C540.227 197.453 548.478 207.113 555.575 218.756C562.605 230.288 567.272 241.981 569.499 253.824C571.827 265.924 570.966 277.345 566.792 287.976L566.793 287.977C562.486 299.022 554.186 308.121 542.307 315.362C531.2 322.132 520.242 325.128 509.56 323.838C498.963 322.649 489.106 318.022 480.022 310.219C471.049 302.51 462.786 292.383 455.201 279.939C447.616 267.496 442.403 255.514 439.662 244.007C436.878 232.316 437.422 221.334 441.487 211.216L441.877 210.261C446.02 200.444 454.06 192.116 465.489 185.149ZM498.93 184.382C489.724 183.286 480.003 185.672 469.653 191.98C458.843 198.57 452.126 206.008 448.935 214.139L448.929 214.154L448.922 214.171C445.544 222.559 444.988 231.837 447.444 242.153L447.686 243.141C450.252 253.367 455.003 264.243 462.032 275.775C469.289 287.681 477.038 297.108 485.235 304.15L485.993 304.792C493.583 311.114 501.464 314.708 509.661 315.791L510.482 315.892L510.5 315.894L510.519 315.896C518.965 316.916 528.131 314.634 538.143 308.531C548.873 301.991 555.803 294.14 559.34 285.07L559.344 285.061C562.912 275.978 563.716 266.107 561.644 255.336L561.64 255.318C559.615 244.541 555.342 233.744 548.744 222.92C542.063 211.959 534.403 203.037 525.782 196.095C517.344 189.361 508.403 185.51 498.93 184.382ZM29.6807 182.01C46.0723 182.01 59.3602 195.298 59.3604 211.689C59.3604 228.081 46.0724 241.37 29.6807 241.37C13.2887 241.37 0 228.081 0 211.689C0.000134084 195.298 13.2888 182.01 29.6807 182.01ZM328.961 0C355.877 3.53219e-05 376.172 8.00193 389.849 24.0059C403.67 39.8644 410.581 60.6699 410.581 86.4219V167.746C407.928 171.67 405.615 175.752 403.647 179.997L398.616 171.737L351.221 200.621V102.135C351.221 86.5672 347.511 74.4912 340.091 65.9072C332.816 57.1778 322.705 52.8135 309.756 52.8135C301.463 52.8135 294.261 54.7769 288.15 58.7051C282.04 62.4878 277.239 67.8719 273.747 74.8555C270.401 81.6934 268.728 89.6223 268.728 98.6426V241.37H209.367V102.135C209.367 86.5672 205.656 74.4912 198.236 65.9072C190.962 57.1779 180.85 52.8135 167.901 52.8135C155.535 52.8136 145.568 57.1056 138.003 65.6895C130.583 74.1278 126.873 85.1122 126.873 98.6426V241.37H67.0762V5.67383H119.453V31.501C126.29 23.0785 134.655 16.1417 144.551 10.6934C157.645 3.5644 172.267 1.1947e-05 188.416 0C206.893 0 222.025 3.92768 233.81 11.7842C243.654 18.2672 251.366 26.5355 256.95 36.585C264.44 25.5115 274.112 16.808 285.968 10.4756C298.917 3.49201 313.248 0 328.961 0ZM370.351 241.37H351.221V209.986L370.351 241.37ZM405.222 197.956L408.084 190.189C408.775 188.315 409.523 186.456 410.335 184.621L410.581 184.072V241.37H379.719L358.053 205.826L395.946 182.732L405.222 197.956ZM384.011 195.46C376.814 195.46 370.983 201.296 370.98 208.489C370.98 215.686 376.814 221.521 384.011 221.521H384.013C391.206 221.519 397.042 215.687 397.042 208.49C397.04 201.297 391.206 195.462 384.013 195.46H384.011ZM351.221 209.986L347.058 203.159L351.221 200.621V209.986Z" fill="#D9D9D9"/>
</svg>
